<?xml version="1.0" encoding="iso-8859-1"?>
<!-- Generator: Adobe Illustrator 19.0.0, SVG Export Plug-In . SVG Version: 6.00 Build 0)  -->
<svg version="1.1" id="Capa_1" xmlns="http://www.w3.org/2000/svg" xmlns:xlink="http://www.w3.org/1999/xlink" x="0px" y="0px"
	 viewBox="0 0 512 512" style="enable-background:new 0 0 512 512;" xml:space="preserve">
<path style="fill:#8FCFE8;" d="M341.068,216.336c34.677,43.346,31.216,105.835-8.036,145.087l0,0
	c-42.544,42.544-111.521,42.544-154.065,0l0,0c-39.252-39.252-42.713-101.741-8.036-145.087l81.164-101.455
	c2.002-2.502,5.807-2.502,7.809,0L341.068,216.336z"/>
<path style="fill:#7DBFD3;" d="M333.033,361.423L333.033,361.423c-26.003,26.003-61.88,36.11-95.562,30.326
	c21.425-3.679,41.962-13.785,58.503-30.326l0,0c89.693-82.756-49.438-239.594-49.438-239.594l5.559-6.949
	c2.002-2.502,5.807-2.502,7.809,0l81.164,101.455C375.746,259.682,372.285,322.171,333.033,361.423z"/>
<path style="fill:#BFE6F3;" d="M222.123,307.848c10.738,15.131,11.777,32.837,2.32,39.548c-9.457,6.711-25.828-0.114-36.565-15.245
	c-10.738-15.131-11.777-32.837-2.32-39.548C195.014,285.892,211.385,292.718,222.123,307.848z"/>
<path style="fill:#B7CC69;" d="M480.525,256c0-101.947-74.569-191.063-175.716-212.948c-8.097-1.752-13.426-9.276-12.168-17.241l0,0
	c1.376-8.719,10.05-14.54,18.915-12.63c53.383,11.503,101.922,39.56,138.058,80.109C489.844,138.433,512,196.217,512,256
	s-22.156,117.567-62.387,162.71c-34.631,38.86-80.654,66.239-131.414,78.577l0.93,3.371c1.864,6.758-4.574,12.908-11.498,10.984
	L269.59,501.07c-3.822-1.062-6.601-4.409-6.718-8.44c-0.072-2.485,1.013-4.871,2.792-6.658l27.317-27.446
	c5.006-5.03,13.746-2.831,15.61,3.927l1.46,5.292C408.521,443.962,480.525,356.177,480.525,256z"/>
<path style="fill:#7FA740;" d="M31.475,256c0,101.947,74.569,191.063,175.716,212.949c8.097,1.752,13.426,9.276,12.168,17.241l0,0
	c-1.376,8.719-10.05,14.54-18.915,12.63c-53.383-11.503-101.922-39.56-138.058-80.109C22.156,373.567,0,315.783,0,256
	S22.156,138.433,62.387,93.29c34.631-38.86,80.654-66.239,131.414-78.577l-0.93-3.371c-1.864-6.758,4.574-12.908,11.498-10.984
	L242.41,10.93c3.822,1.062,6.601,4.409,6.718,8.44c0.072,2.485-1.013,4.871-2.792,6.658l-27.317,27.446
	c-5.006,5.03-13.746,2.831-15.61-3.927l-1.46-5.292C103.479,68.038,31.475,155.823,31.475,256z"/>
<path style="fill:#D0DF69;" d="M493.252,256c0,127.965-102.515,232.119-230.355,235.748c0.174-2.162,1.2-4.202,2.767-5.776
	l27.317-27.446c5.006-5.03,13.746-2.831,15.61,3.927l1.46,5.292C408.521,443.961,480.525,356.177,480.525,256
	c0-101.946-74.569-191.063-175.716-212.948c-8.097-1.752-13.426-9.276-12.168-17.242l0,0c0.15-0.954,0.403-1.866,0.719-2.745
	C406.638,40.88,493.252,138.379,493.252,256z"/>
<path style="fill:#769939;" d="M31.475,256c0,101.946,74.569,191.063,175.716,212.948c8.097,1.752,13.426,9.276,12.168,17.242l0,0
	c-0.151,0.954-0.403,1.866-0.719,2.745C105.361,471.12,18.748,373.621,18.748,256c0-127.965,102.515-232.119,230.354-235.748
	c-0.174,2.162-1.2,4.202-2.767,5.776l-27.317,27.446c-5.006,5.03-13.746,2.831-15.61-3.927l-1.46-5.292
	C103.479,68.039,31.475,155.823,31.475,256z"/>
<g>
</g>
<g>
</g>
<g>
</g>
<g>
</g>
<g>
</g>
<g>
</g>
<g>
</g>
<g>
</g>
<g>
</g>
<g>
</g>
<g>
</g>
<g>
</g>
<g>
</g>
<g>
</g>
<g>
</g>
</svg>
